<?xml version="1.0" standalone="no"?>
<!DOCTYPE svg PUBLIC "-//W3C//DTD SVG 20010904//EN"
 "http://www.w3.org/TR/2001/REC-SVG-20010904/DTD/svg10.dtd">
<svg version="1.0" xmlns="http://www.w3.org/2000/svg"
 width="671.000000pt" height="1280.000000pt" viewBox="0 0 671.000000 1280.000000"
 preserveAspectRatio="xMidYMid meet">
<metadata>
Created by potrace 1.15, written by Peter Selinger 2001-2017
</metadata>
<g transform="translate(0.000000,1280.000000) scale(0.100000,-0.100000)"
fill="#000000" stroke="none">
<path d="M689 12274 c-273 -543 -359 -728 -448 -965 -193 -517 -231 -955 -151
-1759 26 -255 87 -569 235 -1205 207 -892 244 -1167 232 -1760 -4 -170 -11
-386 -16 -480 -30 -516 -33 -910 -26 -3385 l7 -2505 44 -45 c217 -223 656
-223 1094 0 259 133 456 309 540 485 40 85 48 167 26 300 -39 248 -66 547
-101 1115 -24 398 -43 579 -119 1175 -136 1058 -143 1355 -71 2970 63 1424
103 2290 115 2495 29 494 60 851 79 903 8 20 9 20 24 -10 9 -17 331 -832 716
-1810 580 -1478 708 -1794 754 -1870 317 -522 563 -1149 806 -2053 231 -861
247 -930 366 -1625 153 -891 225 -1194 362 -1540 50 -126 177 -391 206 -429
20 -26 499 36 712 91 288 75 485 201 609 390 l28 42 -101 358 c-88 315 -180
647 -337 1223 -427 1560 -787 2696 -1004 3170 -184 403 -316 833 -419 1370
-57 296 -99 612 -196 1485 -70 628 -111 875 -265 1580 -200 918 -366 1575
-543 2150 -39 127 -34 123 -182 160 -179 46 -359 63 -905 85 -423 18 -533 42
-1010 220 -373 139 -534 184 -705 196 l-90 6 -266 -528z"/>
</g>
</svg>
